<?xml version="1.0" encoding="UTF-8"?>
<!DOCTYPE svg PUBLIC "-//W3C//DTD SVG 1.1//EN" "http://www.w3.org/Graphics/SVG/1.1/DTD/svg11.dtd">
<svg version="1.1" xmlns="http://www.w3.org/2000/svg" xmlns:xlink="http://www.w3.org/1999/xlink" x="0" y="0" width="1601" height="1043" viewBox="0, 0, 1601, 1043">
  <defs>
    <clipPath id="Clip_1">
      <path d="M-0,0.17 L1600.31,0.17 L1600.31,1042.94 L-0,1042.94 z"/>
    </clipPath>
  </defs>
  <g id="Layer_1">
    <g clip-path="url(#Clip_1)">
      <path d="M1599.8,1040.35 C1599.88,1041.44 1600.53,1042.83 1598.61,1042.95 C1597.11,1043.03 1595.61,1042.99 1594.11,1042.99 C1068.74,1042.99 543.37,1042.99 18.001,1042.98 C16.008,1042.98 14.015,1042.84 12.021,1042.77 C11.126,1041.07 11.887,1039.49 12.479,1037.97 C20.383,1017.63 27.128,996.723 37.235,977.409 C51.337,950.461 62.448,922.32 73.814,894.222 C79.496,880.175 86.516,866.714 93.642,853.32 C97.053,846.909 100.867,840.558 102.035,833.144 C102.508,830.144 104.968,829.037 107.526,828.913 C115.511,828.523 123.263,825.898 131.343,826.525 C137.118,826.973 142.518,824.931 148.06,823.883 C172.514,819.256 196.99,815.725 221.811,821.24 C226.373,822.254 231.098,822.08 235.697,822.641 C263.086,825.984 290.611,825.1 317.997,824.179 C340.595,823.42 363.233,823.023 385.822,821.702 C388.987,821.517 392.156,821.649 395.311,821.712 C425.458,822.318 455.481,818.356 485.651,819.469 C506.315,820.231 526.855,821.778 547.145,825.929 C555.491,827.636 563.97,828.422 572.453,828.47 C598.268,828.616 624.091,828.869 649.888,827.501 C671.668,826.346 693.493,826.408 715.26,825.317 C731.526,824.501 747.736,822.069 764.043,821.864 C787.184,821.574 810.331,821.482 833.477,821.522 C859.967,821.567 886.458,821.684 912.947,821.48 C930.974,821.341 948.785,824.287 966.752,824.712 C975.068,824.908 983.368,825.406 991.685,825.567 C1012.81,825.974 1033.89,827.793 1055,828.281 C1074.64,828.734 1094.26,830.04 1113.92,829.584 C1126.08,829.301 1138.26,829.13 1150.4,829.602 C1198.69,831.478 1247.01,829.504 1295.29,830.711 C1336.77,831.749 1378.23,830.999 1419.69,831.631 C1434.82,831.862 1449.91,833.505 1465.03,834.216 C1477,834.779 1488.98,835.25 1500.95,835.854 C1506.12,836.115 1508.64,838.525 1510.44,843.04 C1524.56,878.658 1539.14,914.093 1557.17,947.963 C1571.43,974.74 1584.64,1002.01 1596.67,1029.86 C1598.14,1033.26 1598.99,1036.78 1599.8,1040.35" fill="#FE8227"/>
      <path d="M1599.8,1040.35 C1587,1010.67 1573.19,981.462 1558.08,952.881 C1541.51,921.52 1527.04,889.218 1514.25,856.147 C1513,852.913 1511.4,849.816 1510.15,846.58 C1506.52,837.161 1506.54,837.474 1496.73,836.971 C1473.51,835.779 1450.27,834.771 1427.05,833.322 C1406.31,832.027 1385.42,833.201 1364.6,832.99 C1299.5,832.332 1234.4,832.389 1169.3,831.705 C1140.84,831.406 1112.37,831.724 1083.92,830.869 C1059.65,830.14 1035.37,829.408 1011.16,827.808 C990.089,826.416 968.964,827.011 947.921,825.067 C901.079,820.74 854.113,823.516 807.204,823.096 C786.596,822.912 765.866,822.456 745.392,824.326 C714.565,827.143 683.673,827.272 652.823,828.809 C624.221,830.233 595.587,830.405 566.956,829.856 C554.98,829.626 543.358,826.616 531.626,824.616 C524.421,823.389 517.143,823 509.931,822.278 C488.051,820.087 465.938,819.573 444.116,821.351 C423.174,823.058 402.291,822.85 381.382,823.386 C341.135,824.419 300.912,827.183 260.634,825.904 C244.289,825.385 227.966,823.895 211.792,821.013 C199.423,818.809 187.013,820.485 174.573,821.302 C160.609,822.219 147.291,826.529 133.534,827.937 C125.329,828.776 117.063,829.659 108.785,830.058 C105.554,830.214 102.282,830.659 103.412,835.562 C104.082,838.47 101.424,840.318 100.24,842.613 C84.736,872.652 70.94,903.425 59.013,935.083 C52.947,951.185 43.87,965.993 36.74,981.646 C29.896,996.674 23.64,1011.99 18.115,1027.59 C16.296,1032.72 14.064,1037.71 12.021,1042.77 C8.2,1042.77 4.379,1042.77 -0,1042.77 C6.973,1029.6 11.125,1015.49 16.814,1002 C20.448,993.377 23.874,984.664 27.723,976.141 C33.245,963.916 39.766,952.177 45.408,939.992 C51.215,927.45 55.901,914.489 60.981,901.679 C68.198,883.48 76.527,865.849 85.935,848.687 C88.492,844.022 90.891,839.299 91.363,833.576 C92.06,825.132 98.309,819.878 107.662,819.385 C124.324,818.505 140.661,816.022 157.06,812.79 C175.118,809.231 193.926,807.865 212.075,810.559 C226.096,812.641 240.294,812.582 254.278,815.542 C263.829,817.564 274.198,816.584 284.111,815.795 C293.755,815.029 303.369,815.483 312.982,815.053 C347.526,813.508 382.11,813.627 416.648,812.602 C440.482,811.894 464.29,809.406 488.191,810.13 C495.444,810.35 502.694,811.154 509.905,812.021 C513.543,812.459 514.298,811.261 514.286,807.794 C514.203,783.494 513.889,759.181 514.546,734.896 C515.087,714.864 517.028,694.874 518.013,674.849 C518.471,665.542 518.012,656.194 518.189,646.869 C518.426,634.406 517.372,621.906 519.144,609.486 C519.596,606.312 518.915,605.071 515.128,604.879 C503.209,604.276 491.619,601.331 480.654,596.841 C474.592,594.359 469.833,588.704 469.383,582.051 C467.549,554.943 466.082,527.754 474.362,501.246 C476.087,495.725 478.78,490.615 482.027,485.809 C483.187,484.092 484.236,482.299 486,479.476 C476.028,483.165 468.432,488.263 461.463,494.245 C454.941,499.843 448.664,505.807 442.059,511.229 C433.493,518.262 422.672,521.417 411.927,524.021 C397.523,527.511 382.843,526.232 368.295,525.805 C357.59,525.491 347.126,523.122 337.257,518.427 C324.668,512.439 311.396,507.645 300.277,499.035 C280.341,483.596 264.939,464.368 253.1,442.05 C241.83,420.804 236.236,397.849 232.652,374.5 C229.602,354.631 230.91,334.421 232.029,314.328 C232.924,298.257 236.154,282.653 240.421,267.245 C245.526,248.806 254.873,232.352 265.328,216.51 C272.415,205.772 278.416,194.366 286.382,184.153 C298.289,168.887 312.768,156.919 329.739,147.772 C350.198,136.744 371.515,127.911 394.007,121.93 C416.215,116.025 438.835,115.353 461.601,116.231 C469.909,121.16 474.262,115.006 478.844,109.928 C483.235,105.062 488.98,101.97 494.04,98.003 C505.235,89.228 516.362,80.201 528.419,72.733 C544.771,62.605 561.236,52.493 578.959,44.781 C587.685,40.984 597.093,40.165 606.416,39.146 C621.326,37.517 636.266,38.252 651.155,39.254 C661.836,39.972 672.195,42.946 682.676,45.059 C695.903,47.726 709.465,48.956 722.503,52.29 C748.548,58.949 772.838,69.724 793.654,87.189 C801.68,93.923 808.108,102.236 813.31,111.251 C820.376,123.496 828.461,135.368 832.404,149.087 C834.163,155.21 837.996,158.153 842.686,161.667 C853.754,169.959 860.4,181.385 863.106,195.084 C864.214,200.687 864.408,206.31 864.033,211.914 C863.815,215.177 865.314,216.233 867.872,217.041 C876.494,219.768 884.927,222.876 893.072,226.94 C904.759,232.771 907.78,247.612 899.104,255.39 C896.597,257.637 898.962,258.353 899.99,259.565 C904.938,265.399 909.305,271.24 909.262,279.662 C909.225,286.977 906.248,291.96 900.44,295.719 C898.377,297.054 896.222,298.248 893.884,299.64 C898.889,304.824 903.525,310.184 906.428,316.797 C907.073,318.268 908.548,318.087 909.891,318.105 C914.054,318.163 918.26,318.714 922.37,318.293 C934.598,317.04 944.736,322.148 954.996,327.757 C969.731,335.812 981.718,346.545 990.42,360.942 C990.797,361.565 990.456,363.153 992.623,362.631 C1004.31,359.814 1016.14,359.258 1028.08,361.049 C1031.91,361.625 1035.16,363.551 1038.66,364.924 C1045.75,367.705 1052.24,371.688 1059.11,374.89 C1072.95,381.34 1082.08,392.264 1089.04,405.429 C1092.03,411.07 1096.36,415.93 1098.09,422.319 C1099.97,429.242 1101.04,436.231 1100.7,443.359 C1100.53,446.966 1101.36,448.243 1105.29,448.122 C1120.55,447.655 1135.83,447.644 1151.1,447.308 C1156.23,447.195 1159.32,449.4 1161.44,454.024 C1170.58,473.895 1175.55,494.625 1176.26,516.562 C1176.54,525.016 1176.88,533.481 1177.06,541.947 C1177.42,558.508 1173.67,573.971 1164.74,588.024 C1162.67,591.285 1159.1,591.919 1155.59,591.988 C1148.43,592.129 1141.26,592.069 1134.1,592.033 C1130.81,592.016 1129.31,592.508 1130.02,596.759 C1130.85,601.735 1130.26,606.997 1129.93,612.112 C1128.3,637.707 1128.37,663.317 1129.85,688.891 C1131.15,711.179 1130.64,733.471 1131.1,755.757 C1131.53,776.386 1132.38,797.007 1131.98,817.643 C1131.92,820.811 1133.15,821 1135.75,821.004 C1150.72,821.024 1165.68,821.019 1180.64,821.437 C1214.85,822.391 1249.07,821.778 1283.29,821.982 C1303.36,822.102 1323.45,821.572 1343.5,822.371 C1373.56,823.571 1403.66,821.693 1433.66,823.316 C1454.5,824.443 1475.4,824.88 1496.2,826.892 C1499.83,827.243 1503.55,827.28 1507.18,826.973 C1512.56,826.518 1515.11,829.687 1516.78,833.928 C1528.8,864.451 1540.65,895.038 1555.48,924.363 C1567.4,947.933 1578.65,971.864 1591.17,995.108 C1598.95,1009.56 1601.52,1024.39 1599.8,1040.35" fill="#000000"/>
      <path d="M335.503,656.016 C330.339,656.011 325.156,655.745 320.015,656.088 C315.198,656.41 311.003,657.707 308.899,663.173 C305.089,673.076 300.528,682.687 296.522,692.518 C295.374,695.335 293.834,696.825 290.789,697.064 C287.626,697.311 285.857,695.662 284.484,693.174 C280.979,686.825 278.169,680.149 276.057,673.247 C275.079,670.051 273.318,669.608 270.694,670.089 C254.544,673.051 238.22,671.592 221.973,671.946 C217.425,672.046 215.347,667.45 218.063,663.853 C226.135,653.161 234.35,642.474 243.999,633.244 C248.774,628.678 249.404,625.149 248.676,618.823 C247.304,606.902 247.938,594.731 248.049,582.667 C248.089,578.33 251.921,576.141 256.255,577.576 C264.725,580.381 272.333,585.068 280.378,588.804 C281.565,589.356 282.738,589.938 283.929,590.48 C290.776,593.596 296.794,595.981 304.323,590.003 C312.17,583.773 323.088,583.884 332.622,581.086 C335.289,580.303 337.982,579.452 340.723,579.11 C347.389,578.28 350.696,582.44 348.323,588.786 C344.588,598.779 339.831,608.323 334.561,617.582 C333.231,619.92 333.306,621.141 335.314,622.881 C339.705,626.687 343.824,630.805 348.139,634.7 C351.999,638.183 354.778,642.46 357.319,646.9 C360.105,651.769 357.663,655.917 351.996,656.003 C346.499,656.086 341.001,656.021 335.503,656.016" fill="#000000"/>
      <path d="M1213.43,119.475 C1201.92,118.373 1192.89,114.587 1184.04,110.208 C1182.28,109.337 1180.44,108.634 1178.67,107.776 C1175.99,106.474 1173.71,106.594 1171.61,109.021 C1164.66,117.044 1155.75,119.966 1145.33,119.136 C1140.34,118.74 1138.42,117.042 1138.18,112.214 C1137.79,104.606 1137.37,97.001 1136.94,89.396 C1136.86,87.902 1136.46,86.875 1134.93,85.842 C1127.67,80.959 1120.62,75.783 1113.56,70.628 C1111.96,69.463 1110.35,68.153 1109.2,66.577 C1107.12,63.723 1107.22,60.355 1110.72,59.206 C1119.66,56.264 1127.35,50.526 1136.47,48.084 C1141,46.873 1143.76,45.061 1145.99,39.735 C1151.6,26.368 1159.93,14.338 1171.12,4.681 C1173.1,2.968 1175.42,1.685 1177.97,0.843 C1182.91,-0.791 1187.12,0.561 1190.07,4.789 C1193.62,9.878 1194.64,16 1196.99,21.582 C1197.17,22.028 1197.13,22.567 1197.3,23.028 C1202.86,38.648 1203.05,39.035 1219.52,38.785 C1227.99,38.657 1235.77,40.931 1243.54,43.618 C1249.46,45.668 1250.54,50.157 1246.54,55.969 C1240.32,65.011 1232.77,72.891 1224.31,79.84 C1222.5,81.333 1221.97,82.646 1221.99,84.761 C1222.08,92.92 1221.72,101.097 1222.15,109.235 C1222.5,116.015 1219.13,120.65 1213.43,119.475" fill="#000000"/>
    </g>
    <path d="M1409.18,605.02 C1401.58,604.271 1392.71,600.73 1384.07,596.504 C1382.44,595.708 1380.78,594.974 1379.18,594.117 C1375.52,592.147 1372.58,592.381 1369.55,595.777 C1362.87,603.26 1354.14,605.713 1344.31,604.996 C1339.73,604.662 1337.5,602.635 1337.37,597.814 C1337.16,590.194 1336.42,582.589 1336.02,574.971 C1335.94,573.266 1335.22,572.507 1333.83,571.555 C1326.31,566.389 1318.89,561.077 1311.56,555.647 C1309.21,553.905 1306.49,552.002 1307.25,548.381 C1307.96,544.97 1311.09,544.886 1313.67,543.798 C1320.38,540.97 1326.71,537.098 1333.59,534.875 C1339.59,532.935 1343.13,530.691 1345.89,524.104 C1351.05,511.788 1358.92,500.656 1369.19,491.66 C1371.17,489.934 1373.44,488.389 1375.82,487.326 C1381.32,484.87 1386.15,486.635 1389.46,491.706 C1392.68,496.655 1393.59,502.501 1395.91,507.793 C1395.97,507.939 1395.92,508.131 1395.98,508.285 C1401.64,524.828 1401.76,525.184 1418.93,524.879 C1427.5,524.726 1435.28,527.252 1443.06,530.035 C1448.01,531.804 1449.01,536.335 1445.59,541.463 C1439.57,550.492 1432.1,558.287 1423.78,565.187 C1421.58,567.013 1420.8,568.723 1420.85,571.405 C1421,579.559 1420.97,587.717 1420.96,595.873 C1420.96,603.173 1418.73,605.272 1409.18,605.02" fill="#000000"/>
    <path d="M340.236,918.893 C338.596,920.897 337.299,922.395 336.096,923.964 C325.203,938.176 310.487,942.361 293.518,939.578 C270.63,935.824 255.439,922.154 246.063,901.417 C245.865,900.981 245.533,900.605 244.955,899.738 C237.141,906.488 229.606,913.362 221.684,919.755 C209.75,929.384 196.644,936.782 180.772,936.826 C156.456,936.895 135.152,915.241 135.16,890.896 C135.16,888.731 135.197,886.566 135.177,884.401 C135.141,880.569 136.446,877.572 140.771,877.838 C144.818,878.087 145.741,880.95 145.274,884.658 C143.591,898.02 149.281,908.598 158.366,917.628 C168.153,927.357 183.277,928.98 197.768,922.549 C209.547,917.323 218.783,908.713 228.28,900.398 C233.783,895.58 239.402,890.913 243.848,885.002 C245.366,882.983 247.517,881.504 250.367,882.625 C253.058,883.683 254.144,885.911 254.047,888.571 C253.389,906.539 278.672,929.178 295.125,929.117 C299.601,929.101 304.113,929.873 308.548,929.523 C317.14,928.844 323.131,923.421 328.222,917.116 C332.577,911.723 336.73,906.129 339.411,899.603 C340.371,897.267 342.368,895.824 344.987,896.396 C347.67,896.983 349.603,898.774 349.138,901.738 C346.974,915.525 355.225,924.207 364.186,932.415 C373.227,940.696 383.541,945.572 396.27,946.235 C413.378,947.124 426.031,939.027 438.158,928.698 C448.1,920.229 456.046,910.004 464.295,900.025 C465.348,898.75 466.359,897.384 467.63,896.358 C469.724,894.666 471.996,894.853 473.985,896.625 C476.116,898.524 476.81,900.95 474.964,903.284 C461.645,920.116 448.207,936.906 429.384,948.076 C405.314,962.36 377.26,959.076 356.878,939.944 C353.597,936.864 350.562,933.587 347.689,930.118 C344.927,926.782 342.883,923.005 340.236,918.893" fill="#000000"/>
    <path d="M1179.53,916.479 C1174.21,927.639 1167.34,937.28 1156.23,941.985 C1136.76,950.229 1117.47,948.421 1100.07,936.393 C1087.16,927.472 1077.14,915.749 1073.58,899.771 C1073.01,897.216 1073.23,894.488 1073.07,891.841 C1072.86,888.564 1073.98,886.147 1077.57,885.955 C1081.54,885.744 1082.8,888.511 1082.75,891.808 C1082.67,897.062 1083.51,902.039 1086.11,906.636 C1093.79,920.225 1104.07,930.904 1119.58,935.193 C1127.29,937.326 1135.4,938.009 1143.25,936.537 C1158.7,933.643 1170.83,919.37 1172.99,902.584 C1173.47,898.876 1173.09,894.132 1178.17,893.633 C1183.33,893.125 1183.98,897.858 1184.66,901.464 C1187.97,919.121 1200.26,926.467 1216.34,930.033 C1235.17,934.21 1252.76,931.012 1269.73,922.388 C1280.23,917.052 1290.9,912.059 1299.75,904.044 C1301.72,902.258 1303.78,900.483 1304.96,898.052 C1306.34,895.208 1308.22,893.254 1311.56,894.3 C1314.65,895.268 1314.93,897.993 1315.01,900.796 C1315.51,918.513 1330.86,933.159 1348.67,934.152 C1362.21,934.907 1373.98,930.666 1385.41,924.262 C1392.56,920.25 1398.94,915.247 1404.77,909.53 C1407.26,907.089 1409.46,904.585 1409.27,900.553 C1409.14,897.826 1410.92,895.953 1414.04,895.945 C1417.17,895.938 1418.51,897.826 1418.93,900.563 C1419.6,904.971 1418.14,908.822 1415.27,912.064 C1400.61,928.606 1382.65,940.399 1360.76,943.391 C1339.18,946.34 1320.81,940.047 1308.89,916.886 C1306.11,911.48 1306.33,911.616 1301.21,915.244 C1284.75,926.922 1267.07,936.913 1247.16,940.145 C1227.48,943.336 1207.73,941.541 1190.5,929.227 C1185.92,925.953 1182.67,921.62 1179.53,916.479" fill="#000000"/>
    <path d="M847.567,921.483 C822.96,959.371 764.54,943.082 755.722,907.851 C747.123,916.494 737.635,923.538 727.657,930.089 C703.684,945.83 670.262,941.381 652.064,927.963 C640.315,919.3 634.037,906.491 627.701,893.852 C627.145,892.745 627.177,891.26 627.21,889.957 C627.285,886.931 628.796,884.719 631.843,884.341 C634.981,883.952 636.243,886.024 637.427,888.835 C644.116,904.701 652.209,919.618 669.794,925.831 C692.465,933.84 713.079,929.492 731.924,914.859 C740.38,908.292 748.307,901.323 754.293,892.35 C755.747,890.17 757.651,888.534 760.532,889.192 C763.451,889.859 764.408,892.214 764.632,894.812 C765.146,900.765 765.58,906.716 768.685,912.046 C776.925,926.194 789.947,931.511 805.595,932.62 C823.114,933.86 833.948,924.63 841.847,910.487 C843.721,907.131 841.822,903.403 842.031,899.828 C842.417,893.2 846.866,889.936 853.089,892.096 C855.768,893.026 857.397,894.684 857.072,897.624 C856.8,900.082 856.464,902.57 855.788,904.94 C853.955,911.356 855.725,917.275 860.949,921.414 C864.917,924.558 873.374,925.127 877.99,922.315 C886.962,916.848 893.245,908.546 900.174,900.932 C901.03,899.992 901.042,898.863 901.103,897.674 C901.303,893.772 903.533,891.795 907.299,892.462 C911.393,893.188 913.818,897.128 912.703,900.561 C912.351,901.644 911.804,902.724 911.115,903.63 C903.948,913.055 895.901,921.633 886.736,929.173 C876.295,937.764 855.182,936.185 847.567,921.483" fill="#000000"/>
    <path d="M553.45,996.639 C545.114,1004.52 538.085,1013 528.669,1018.89 C513.238,1028.54 496.854,1030.25 480.205,1023.56 C468.265,1018.76 461.854,1008.77 460.216,995.958 C459.969,994.027 459.923,992.008 460.831,990.077 C461.996,987.601 463.567,985.7 466.524,986.281 C469.504,986.866 470.408,989.145 470.111,991.954 C469.546,997.307 470.898,1002.08 474.03,1006.47 C482.118,1017.81 493.957,1018.65 506.107,1017.43 C518.048,1016.23 527.207,1009.16 535.492,1001.07 C540.716,995.973 545.614,990.535 550.586,985.182 C552.338,983.296 554.042,981.333 556.914,982.18 C559.64,982.983 560.457,985.435 561.09,987.894 C565.075,1003.38 576.625,1010.89 590.793,1014.8 C597.695,1016.7 605.157,1018.03 612.395,1015.96 C622.113,1013.19 629.858,1007.49 635.157,998.798 C636.663,996.328 638.52,994.513 641.361,994.466 C643.434,994.432 645.074,995.914 646.033,997.775 C647.387,1000.4 646.309,1002.53 644.429,1004.49 C636.351,1012.89 628.414,1021.99 616.66,1024.76 C594.322,1030.02 566.016,1021.52 553.45,996.639" fill="#000000"/>
    <path d="M1012.71,1023.06 C998.837,1023.65 987.341,1018.84 978.759,1007.81 C976.622,1005.06 976.049,1007.13 974.916,1008.45 C968.896,1015.47 962.276,1021.7 952.953,1023.99 C936.204,1028.11 917.648,1020.89 907.984,1006.6 C905.1,1002.33 902.489,997.922 900.659,993.075 C899.545,990.126 900.073,987.595 902.986,986.385 C905.878,985.184 908.077,986.575 909.439,989.395 C911.742,994.161 914.052,998.88 917.399,1003.1 C930.28,1019.33 957.643,1021.52 970.798,997.536 C971.347,996.535 971.842,995.373 971.9,994.262 C972.047,991.469 973.563,989.774 976.092,989.459 C978.959,989.102 980.701,991.139 981.707,993.542 C983.716,998.344 986.036,1002.98 990.226,1006.2 C1003.03,1016.02 1016.88,1015.9 1030.93,1009.54 C1045.05,1003.13 1057.61,994.154 1069.7,984.522 C1070.72,983.712 1071.08,982.856 1071.37,981.678 C1071.94,979.316 1073.5,977.884 1076.05,978.098 C1078.77,978.327 1081.49,978.978 1082.72,981.714 C1083.7,983.903 1082.88,985.948 1081.01,987.484 C1063.42,1001.95 1045.51,1015.87 1023.1,1022.36 C1019.63,1023.36 1016.17,1022.8 1012.71,1023.06" fill="#000000"/>
    <path d="M528.35,693.806 C528.35,681.194 528.249,669.063 528.376,656.933 C528.532,641.96 528.837,626.987 529.158,612.016 C529.332,603.938 529.413,604.124 537.537,603.888 C551.318,603.487 565.037,601.582 578.871,602.267 C586.678,602.654 594.516,603.252 602.307,602.933 C614.889,602.417 627.515,602.644 640.043,600.565 C644.519,599.822 649.364,600.435 653.912,601.198 C660.064,602.23 666.213,601.64 672.341,602.056 C693.755,603.506 715.244,602.684 736.641,604.146 C754.576,605.372 772.509,606.441 790.474,605.959 C814.861,605.304 839.064,602.772 863.266,599.461 C881.949,596.906 900.628,593.498 919.686,593.804 C926.918,593.92 934.188,593.138 942.318,593.432 C939.659,596.395 940.192,599.406 940.196,602.357 C940.221,619.344 940.323,636.331 940.172,653.316 C940.113,659.839 940.868,666.232 941.766,672.657 C942.264,676.221 943.766,678.362 947.52,677.932 C951.36,677.492 952.418,674.581 951.994,671.353 C949.841,654.937 951.496,638.456 950.942,622.017 C950.689,614.545 951.625,607.043 950.435,599.601 C950.125,597.666 949.81,595.689 947.953,593.557 C951.781,593.364 954.834,593.118 957.89,593.072 C977.028,592.784 996.188,591.863 1015.3,592.433 C1049.44,593.452 1083.58,592.711 1117.71,592.953 C1121.27,592.978 1121.05,593.739 1120.71,597.036 C1119.18,612.064 1117.99,627.123 1118.06,642.284 C1118.13,658.769 1118.11,675.275 1119.27,691.695 C1120.74,712.503 1119.66,733.297 1120.2,754.087 C1120.65,771.213 1121.16,788.339 1121.94,805.453 C1122.14,809.938 1120.4,814.322 1121.7,818.826 C1122.32,820.961 1120.52,820.75 1119.23,820.757 C1099.1,820.864 1078.98,820.385 1058.88,819.314 C1046.91,818.676 1034.91,819.202 1022.95,818.052 C998.432,815.694 973.689,817.259 949.232,814.8 C904.691,810.321 860.088,812.416 815.524,812.427 C796.238,812.432 776.886,812.271 757.601,813.179 C732.709,814.351 707.848,816.186 682.973,817.718 C680.648,817.861 678.315,817.958 675.986,817.946 C645.187,817.788 614.459,820.706 583.648,820.014 C569.032,819.687 554.492,818.771 540.151,815.656 C536.445,814.85 532.632,814.537 528.875,813.958 C526.328,813.566 524.915,812.622 524.936,809.454 C525.125,781.465 524.959,753.474 525.233,725.486 C525.311,717.536 526.486,709.597 527.202,701.145 C530.124,702.924 532.844,702.956 535.885,702.46 C543.847,701.162 551.757,703.428 559.753,703.331 C580.72,703.077 601.7,703.288 622.599,705.112 C631.482,705.887 640.242,707.975 649.107,709.068 C681.94,713.115 714.794,715.644 747.997,715.256 C776.769,714.919 805.611,716.693 834.397,715.881 C894.361,714.19 954.333,715.913 1014.29,714.78 C1043.38,714.231 1072.42,711.39 1101.56,712.009 C1105.13,712.084 1107.62,710.293 1107.68,706.849 C1107.73,702.918 1104.89,701.75 1101.18,701.783 C1078.72,701.985 1056.29,702.677 1033.84,703.729 C1009.25,704.881 984.597,705.286 959.941,705.051 C922.803,704.698 885.647,704.5 848.521,705.301 C824.877,705.811 801.242,705.841 777.616,705.615 C765.017,705.494 752.409,703.52 739.775,704.262 C730.29,704.819 720.815,704.876 711.33,705.075 C699.953,705.314 688.836,703.143 677.669,701.66 C669.769,700.611 661.844,699.922 653.932,699.283 C643.49,698.441 633.414,695.55 623.035,694.511 C621.712,694.378 620.39,694.096 619.069,694.104 C599.594,694.229 580.159,692.511 560.669,692.974 C553.389,693.146 546.087,692.342 538.793,692.051 C535.297,691.912 531.794,691.921 528.35,693.806" fill="#BF825C"/>
    <path d="M463.132,127.251 C448.804,146.269 439.124,166.919 428.94,187.232 C420.981,203.105 413.634,219.433 409.911,236.891 C405.796,256.185 402.821,275.779 404.435,295.587 C404.936,301.731 404.742,304.302 397.775,306.458 C384.148,310.675 379.618,321.795 378.472,335.692 C376.988,353.676 393.623,371.025 412.25,371.118 C428.467,371.199 439.183,364.331 443.16,349.7 C445.862,339.756 445.03,330.248 435.858,323.326 C434.08,321.984 432.642,320.765 434.644,318.275 C439.524,312.21 442.701,305.085 446.933,297.572 C448.264,304.305 450.758,309.912 453.375,315.462 C457.966,325.199 462.317,335.134 471.289,341.873 C472.769,342.984 472.161,344.282 472.142,345.445 C472.069,350.034 473.822,353.729 476.848,357.101 C483.095,364.058 490.301,369.943 497.591,375.698 C499.766,377.416 499.651,378.361 498.595,380.619 C494.089,390.254 492.619,400.521 493.195,411.086 C493.62,418.883 501.333,428.051 509.375,429.962 C512.333,430.666 513.658,431.647 513.235,434.875 C512.746,438.613 514.483,441.777 517.324,444.001 C527.317,451.824 537.968,457.263 551.1,452.027 C552.136,451.614 553.131,450.858 553.36,452.904 C553.46,453.8 554.182,454.709 554.82,455.438 C555.463,456.172 556.353,456.69 557.321,457.448 C554.11,460.671 551.012,463.836 548.871,467.773 C547.737,469.858 545.305,470.317 543.66,469.815 C525.069,464.139 506.118,464.219 487.334,467.424 C478.688,468.9 470.903,474.135 463.674,479.359 C454.271,486.155 445.357,493.569 437.079,501.743 C431.257,507.493 423.405,509.492 415.999,512.008 C402.427,516.62 388.333,516.632 374.213,515.583 C334.658,512.646 303.609,493.807 279.263,463.502 C266.148,447.176 256.321,428.639 250.802,408.358 C245.428,388.609 240.839,368.647 241.956,347.795 C242.799,332.056 241.635,316.278 243.937,300.522 C247.683,274.886 255.438,250.823 269.774,229.148 C277.982,216.739 284.968,203.575 293.878,191.591 C307.417,173.38 325.448,161.155 345.474,151.363 C362.212,143.178 379.505,136.543 397.574,131.89 C418.841,126.414 440.39,125.506 463.132,127.251" fill="#FEFEFE"/>
    <path d="M650.958,571.329 C654.896,576.145 658.483,574.989 662.016,573.895 C679.703,568.42 694.694,557.932 709.992,548.02 C714.262,545.254 713.378,541.329 712.377,537.35 C707.778,519.076 697.543,504.18 684.615,490.885 C683.47,489.706 682.388,488.466 680.935,486.883 C686.171,484.896 691.256,483.597 695.572,480.636 C696.799,479.795 697.612,480.386 698.695,481.002 C702.45,483.136 706.42,484.907 710.089,487.171 C719.944,493.254 730.191,492.976 740.742,489.544 C746.338,487.723 751.649,485.486 755.277,480.51 C756.17,479.285 757.146,479.378 758.685,479.665 C772.83,482.3 786.629,481.521 799.826,475.096 C805.142,472.508 810.732,474.703 815.915,475.527 C824.707,476.923 833.446,476.789 842.238,477.003 C846.363,477.104 849.066,473.163 853.464,473.908 C856.067,474.349 857.357,474.654 858.199,477.589 C861.471,489.005 868.471,497.526 879.403,502.538 C897.224,510.708 915.449,510.962 934.301,506.291 C944.326,503.807 954.075,501.723 962.65,495.245 C969.506,490.065 973.342,483.632 975.005,475.592 C975.581,472.803 975.87,470.696 979.122,469.154 C983.324,467.16 984.693,462.322 986.167,458.092 C987.129,455.332 988.255,454.477 991.52,454.845 C1009.26,456.84 1027.09,455.749 1044.89,455.925 C1055.38,456.028 1065.71,457.45 1076.1,458.653 C1083,459.451 1089.99,459.423 1096.98,458.377 C1101.55,457.694 1106.29,458.086 1110.95,458.074 C1123.11,458.044 1135.28,458.229 1147.44,457.942 C1150.9,457.86 1152.5,459.148 1153.73,462.042 C1159.49,475.708 1163.27,489.902 1165.03,504.614 C1166.53,517.182 1166.81,529.853 1166.68,542.464 C1166.56,554.893 1165.27,567.312 1158.03,578.198 C1156.4,580.657 1154.71,582.353 1151.62,581.778 C1142.46,580.081 1133.37,582.045 1124.25,582.28 C1094.63,583.044 1065.02,582.877 1035.4,582.34 C1013.76,581.949 992.123,581.672 970.469,582.655 C953.34,583.433 936.141,582.606 919.006,583.311 C904.941,583.89 890.933,585.418 876.925,587.368 C864.002,589.167 851.05,591.149 838,592.345 C822.455,593.77 806.912,594.857 791.335,595.773 C776.326,596.654 761.373,595.45 746.479,594.557 C731.183,593.641 715.919,593.288 700.618,593.001 C684.845,592.705 669.086,591.697 653.319,591.052 C650.322,590.93 649.801,590.474 650.688,587.012 C651.807,582.644 650.958,577.772 650.958,571.329" fill="#BF825C"/>
    <path d="M472.416,328.467 C466.199,318.875 460.544,309.55 458.455,299.095 C457.011,291.867 451.521,290.149 447.147,286.661 C445.548,285.386 443.592,286.629 442.132,287.782 C439.765,289.652 437.781,291.87 436.47,294.646 C433.203,301.561 429.022,307.938 424.998,314.42 C423.378,317.028 420.211,316.632 418.279,319.489 C415.847,308.111 414.607,297.248 414.716,286.345 C414.913,266.562 416.728,246.815 423.31,228.079 C428.839,212.343 434.841,196.699 443.205,182.096 C448.564,172.74 452.945,162.821 458.367,153.505 C468.257,136.515 479.363,120.602 496.25,109.389 C507.288,102.061 517.443,93.413 528.126,85.537 C539.653,77.038 552.679,71.034 564.955,63.778 C573.543,58.701 582.108,53.624 592.072,51.813 C598.265,50.688 604.523,49.455 610.783,49.25 C633.722,48.498 656.512,49.088 679.024,54.904 C691.959,58.246 705.601,58.861 718.525,62.234 C746.699,69.588 773.315,80.407 793.755,102.394 C797.351,106.262 800.76,110.5 803.33,115.085 C809.312,125.759 816.372,135.885 820.753,148.152 C812.004,145.09 803.218,143.769 794.543,142.307 C769.824,138.14 745.003,134.939 719.757,136.032 C689.79,137.329 660.164,140.952 632.326,152.294 C610.133,161.336 587.988,171.161 569.363,186.879 C560.351,194.483 552.361,203.324 542.729,210.184 C513.909,230.708 496.913,259.791 482.96,291.273 C477.809,302.895 474.831,314.969 472.416,328.467" fill="#FF2600"/>
    <path d="M666.263,477.135 C668.688,457.989 660.945,447.326 644.816,438.373 C634.976,432.912 624.45,428.88 612.645,430.98 C610.435,431.374 607.968,431.975 607.996,427.661 C608.023,423.525 603.047,421.969 599.329,424.748 C596.535,426.837 593.634,428.663 590.631,430.419 C583.813,434.407 577.467,434.487 570.999,429.482 C568.26,427.362 565.565,425.208 562.889,423.01 C554.143,415.828 555.035,397.562 562.108,386.166 C567.755,377.067 575.423,373.367 585.541,375.261 C591.649,376.404 594.031,371.108 592.84,366.765 C590.218,357.209 593.244,349.51 601.738,344.614 C614.611,337.194 631.464,340.138 638.777,354.346 C640.182,357.076 642.058,358.674 645.037,357.894 C647.873,357.152 649.028,355.069 649.196,351.945 C649.933,338.254 659.556,322.044 678.342,320.171 C685.121,319.495 698.8,323.357 701.402,333.613 C702.119,336.439 704.334,338.341 707.358,337.792 C710.484,337.224 711.932,334.82 712.093,331.61 C712.436,324.789 715.112,319.297 720.88,315.252 C725.805,311.798 730.868,312.872 736.082,313.83 C737.797,314.145 738.138,315.102 738.121,316.599 C738.009,326.489 745.95,331.578 754.059,332.774 C766.701,334.639 779.618,334.318 792.278,332.788 C799.006,331.974 805.532,328.923 811.496,325.282 C816.457,322.254 818.569,317.484 818.932,311.976 C819.121,309.098 819.291,306.955 822.161,305.039 C824.797,303.28 826.641,300.184 828.515,297.458 C834.574,288.645 843.523,287.824 852.864,288.865 C858.075,289.446 861.696,297.944 859.411,303.359 C858.257,306.093 857.102,308.722 859.793,311.057 C862.454,313.365 865.114,312.462 868,310.983 C873.599,308.113 879.735,307.727 885.914,308.093 C886.666,308.137 887.574,308.504 888.095,309.032 C899.284,320.36 904.427,333.122 894.29,348.012 C892.681,350.376 890.437,351.147 888.128,351.696 C883.913,352.699 879.989,354.411 876.017,356.006 C870.516,358.215 869.51,361.698 872.821,366.45 C880.303,377.189 880.05,389.255 872.12,399.874 C867.948,405.461 853.388,410.227 846.94,408.356 C844.389,407.616 841.574,407.403 839.708,410.07 C837.891,412.668 838.394,415.05 840.695,417.092 C843.247,419.356 843.56,422.339 843.015,425.339 C840.451,439.44 826.644,450.957 812.332,451.08 C810.167,451.099 808.001,451.067 805.835,451.063 C799.945,451.053 797.787,453.477 799.561,459.115 C800.438,461.904 799.486,462.756 797.539,464.159 C787.706,471.246 776.195,470.143 765.107,470.879 C762.943,471.022 761.023,469.329 759.927,466.889 C758.88,464.557 756.802,462.751 753.949,463.344 C751.238,463.907 749.807,465.92 749.601,468.718 C749.301,472.801 746.847,475.585 743.477,477.192 C733.876,481.772 724.099,483.738 714.261,477.635 C712.581,476.593 710.86,475.601 709.087,474.731 C705.566,473.003 701.933,471.674 700.961,466.992 C700.606,465.282 698.71,463.732 697.216,462.466 C695.825,461.287 694.108,460.72 692.143,461.767 C690.18,462.811 689.291,464.224 689.021,466.442 C688.768,468.512 691.122,471.015 688.918,472.454 C685.958,474.387 682.647,475.954 678.913,476.13 C674.782,476.325 670.59,475.592 666.263,477.135" fill="#FEFEFE"/>
    <path d="M853.861,212.998 C848.267,211.473 843.117,209.243 837.539,211.05 C835.729,211.636 835.597,209.994 835.274,209.157 C831.94,200.516 824.13,196.303 817.472,190.948 C817.215,190.742 816.946,190.538 816.653,190.391 C805.893,184.998 784.203,189.998 776.803,199.489 C774.493,202.453 772.56,205.501 773.091,209.442 C773.392,211.678 772.471,212.126 770.384,212.313 C756.052,213.597 742.081,216.651 728.39,221.088 C722.519,222.99 719.659,222.168 714.457,219.122 C702.163,211.923 689.321,212.237 675.768,215.571 C660.046,219.438 651.422,230.637 645.587,243.949 C642.987,249.881 639.518,252.939 634.607,256.305 C619.186,266.876 602.073,274.413 586.244,284.187 C575.651,290.728 566.268,298.915 556.755,306.926 C549.183,313.303 540.216,317.805 532.902,324.664 C523.864,333.139 516.19,342.475 510.963,353.767 C509.309,357.341 507.34,360.77 505.496,364.256 C504.34,366.442 502.915,366.882 500.899,365.129 C495.263,360.225 489.482,355.492 484.426,349.947 C483.305,348.716 482.977,347.435 482.899,345.94 C482.132,331.219 483.944,316.724 489.241,303.059 C495.191,287.706 502.976,273.178 511.492,259.008 C523.119,239.661 539.614,225.329 557.163,211.792 C564.369,206.234 570.813,199.695 577.673,193.681 C588.994,183.753 602.817,178.054 615.911,171.103 C630.717,163.244 646.327,157.522 662.588,153.762 C689.732,147.487 717.309,145.41 745.113,146.808 C768.431,147.979 791.544,151.291 814.054,157.266 C839.863,164.117 855.281,186.514 853.861,212.998" fill="#FEFEFE"/>
    <path d="M619.106,329.931 C605.94,330.233 594.396,333.933 586.306,345.217 C582.918,349.941 580.591,354.934 581.123,360.882 C581.354,363.46 580.898,364.744 577.756,364.744 C571.83,364.744 566.319,366.581 561.837,370.608 C559.63,372.592 557.423,372.965 554.599,372.428 C544.38,370.485 537.1,364.778 532.909,355.388 C528.409,345.302 537.642,330.73 548.558,330.033 C555.856,329.568 563.055,329.357 570.295,330.951 C574.786,331.94 580.174,326.52 580.049,321.483 C579.888,314.971 580.742,308.963 583.55,302.77 C587.182,294.76 593.825,290.352 600.819,287.425 C613.776,282.002 625.185,274.243 636.904,266.857 C638.41,265.907 640.018,265.122 642.055,263.998 C641.413,270.79 644.356,275.56 649.157,279.206 C656.951,285.126 665.071,283.101 671.542,273.9 C677.121,265.969 683.856,259.249 691.765,253.549 C696.041,250.467 700.49,250.02 705.386,250.067 C715.318,250.161 720.799,244.688 721.095,234.675 C721.124,233.697 721.202,232.721 721.276,231.394 C724.205,233.496 726.812,232.95 729.852,231.864 C742.934,227.189 756.36,223.893 770.303,223.038 C772.937,222.877 774.897,222.93 775.966,226.191 C777.509,230.903 782.093,231.335 786.196,231.752 C793.127,232.456 799.815,234.072 806.538,235.845 C815.4,238.181 824.464,238.734 833.419,236.005 C835.242,235.45 835.622,236.291 836.272,237.64 C841.967,249.467 846.723,261.527 846.095,275.003 C846.035,276.31 846.832,278.108 844.257,278.182 C831.087,278.56 822.761,286.498 815.741,297.242 C811.482,291.099 806.236,286.791 799.672,284.236 C793.925,281.999 787.862,283.493 782.058,282.845 C767.264,281.192 756.053,289.056 746.413,297.55 C740.551,302.715 736.094,302.9 729.639,302.34 C719.056,301.421 711.926,307.535 706.19,315.647 C705.256,316.969 705.176,319.31 702.4,317.321 C693.707,311.093 683.967,308.667 673.315,310.203 C667.908,310.94 662.557,309.259 657.045,310.311 C647.84,312.066 638.878,314.391 630.482,318.58 C625.47,321.081 621.384,324.631 619.106,329.931" fill="#FFEBD0"/>
    <path d="M641.996,589.766 C619.007,594.245 595.551,592.042 572.174,592.053 C555.375,592.061 538.652,592.994 521.917,594.595 C512.31,595.514 502.794,593.199 493.64,590.046 C489.524,588.628 484.747,588.652 481.882,584.369 C480.261,581.945 479.089,579.622 479.101,576.593 C479.154,563.267 478.684,549.93 479.089,536.617 C479.624,519.009 482.905,502.151 493.375,487.2 C496.703,482.448 500.127,480.254 505.679,481.062 C517.284,482.751 528.907,482.231 540.475,480.88 C543.945,480.475 544.222,481.657 544.224,484.506 C544.23,492.341 545.265,500.039 548.497,507.288 C549.033,508.49 549.473,509.98 550.433,510.709 C558.247,516.644 566.257,522.245 576.515,523.062 C595.777,524.595 614.174,520.836 631.936,513.691 C635.264,512.352 635.875,513.322 636.718,516.253 C638.887,523.798 637.421,531.489 638.05,539.087 C638.382,543.091 638.467,547.337 640.334,550.704 C643.473,556.364 642.366,561.778 641.621,567.596 C640.683,574.919 640.451,582.366 641.996,589.766" fill="#BF825C"/>
    <path d="M910.102,498.963 C900.028,500.199 890.662,496.51 881.742,492.111 C874.338,488.459 869.513,482.092 868.022,473.655 C866.635,465.812 864.854,464.267 856.859,464.058 C856.692,464.054 856.526,464.055 856.359,464.05 C844.271,463.684 843.575,462.645 850.098,452.449 C855.72,443.661 861.564,434.954 870.072,428.523 C870.732,428.025 871.671,427.493 871.842,426.815 C873.618,419.77 879.712,420.034 884.997,418.854 C904.168,414.575 921.918,418.39 937.111,430.358 C947.033,438.175 958.009,446.219 961.842,458.986 C964.072,466.411 966.843,475.141 960.958,482.648 C957.224,487.41 952.025,491.404 946.496,492.716 C934.645,495.527 922.965,500.023 910.102,498.963" fill="#A7724B"/>
    <path d="M995.466,372.44 C1015.12,368.176 1032.89,372.146 1050.38,381.797 C1063.53,389.063 1073.09,398.611 1080.68,411.458 C1086.71,421.664 1090.82,431.71 1090.18,443.646 C1089.98,447.291 1088.88,449.029 1085.23,448.56 C1055.67,444.755 1025.92,445.301 996.229,444.691 C991.981,444.604 991.588,443.342 992.8,439.637 C995.515,431.339 998.593,423.158 1000.08,414.459 C1002.29,401.507 1000.03,389.084 996.59,376.715 C996.198,375.308 995.846,373.889 995.466,372.44" fill="#FF2600"/>
    <path d="M582.159,512.776 C574.717,514.916 570.162,509.63 564.749,506.265 C557.221,501.586 554.885,495.021 554.562,486.281 C554.226,477.193 558.38,471.237 564.156,465.481 C567.689,461.96 571.409,458.555 574.478,454.653 C582.469,444.492 594.37,443.034 605.597,441.384 C615.297,439.959 625.299,440.374 634.854,444.881 C641.989,448.246 647.985,452.612 652.993,458.476 C658.742,465.207 656.861,476.734 649.338,481.334 C647.079,482.714 645.004,484.504 644.76,486.967 C643.715,497.502 635.633,501.103 627.604,504.259 C613.044,509.982 597.998,513.794 582.159,512.776" fill="#A7724B"/>
    <path d="M987.185,422.943 C982.632,414.593 978.837,406.886 972.806,400.653 C960.758,388.202 947.106,377.632 930.394,373.049 C917.538,369.524 903.842,368.65 890.406,370.871 C885.422,371.695 886.859,367.47 885.513,365.645 C883.788,363.306 886.698,363.039 887.987,362.656 C894.074,360.847 900.228,359.275 903.546,353.012 C906.962,346.565 910.756,340.225 910.058,332.501 C909.803,329.679 910.743,328.781 913.657,328.915 C919.64,329.189 925.642,329.022 931.635,329.09 C932.776,329.103 934.021,329.108 935.037,329.54 C964.112,341.925 986,360.578 989.919,394.178 C990.994,403.392 990.548,412.743 987.185,422.943" fill="#FF2600"/>
    <path d="M878.037,409.565 C884.346,401.079 888.165,392.961 888.919,383.654 C889.068,381.808 889.626,381.405 891.452,380.979 C899.766,379.042 907.98,380.848 916.207,381.311 C937.736,382.524 953.15,395.18 966.853,409.971 C973.517,417.164 977.141,426.282 979.692,436.233 C982.186,445.959 976.093,451.831 974.354,460.603 C966.273,440.399 952.279,427.133 935.398,416.891 C917.914,406.282 898.752,404.627 878.037,409.565" fill="#FEFEFE"/>
    <path d="M663.629,483.881 C673.837,494.2 683.838,504.601 692.139,516.48 C696.825,523.185 699.175,530.961 701.939,538.538 C702.715,540.664 701.304,541.619 699.827,542.424 C687.159,549.321 676.088,559.183 661.578,562.729 C659.313,563.282 658.748,563.039 657.438,561.288 C650.047,551.402 647.422,540.328 648.043,528.159 C648.386,521.441 648.794,514.541 644.147,508.746 C643.57,508.026 643.497,507.624 644.478,506.914 C649.766,503.093 653.292,498.088 654.158,491.459 C654.372,489.821 655.84,489.585 656.962,489.002 C659.47,487.699 661.814,486.194 663.629,483.881" fill="#FEFEFE"/>
    <path d="M521.612,355.905 C526.334,367.958 534.127,376.274 545.674,380.918 C551.928,383.434 551.938,383.408 548.722,389.707 C543.281,400.362 545.956,419.166 553.537,428.12 C558.749,434.275 565.566,438.088 572.306,442.604 C568.783,444.958 567.194,450.528 561.569,447.676 C560.631,447.201 559.608,446.98 559.02,445.619 C556.76,440.388 554.485,439.124 549.061,441.626 C541.259,445.224 534.591,442.828 527.961,439.105 C523.452,436.573 522.614,433.462 525.137,428.749 C526.499,426.207 527.305,423.827 525.273,421.438 C523.381,419.214 521.034,419.758 518.435,420.334 C510.677,422.055 503.723,415.889 503.641,407.997 C503.539,398.105 504.787,388.308 510.892,380.262 C514.938,374.93 514.941,368.357 518.048,362.879 C519.26,360.742 520.292,358.503 521.612,355.905" fill="#FEFEFE"/>
    <path d="M856.853,272.34 C855.656,255.672 850.718,240.015 841.176,225.875 C840.283,224.552 838.324,223.316 839.334,221.614 C840.295,219.994 842.511,220.853 843.887,221.186 C859.295,224.915 874.533,229.215 888.714,236.53 C891.918,238.182 893.45,240.808 893.249,244.636 C893.042,248.596 889.877,248.553 887.451,249.583 C886.707,249.898 885.843,249.915 885.06,250.153 C881.939,251.102 878.822,252.364 878.707,256.167 C878.587,260.136 881.585,261.239 884.932,261.976 C890.858,263.28 898.655,272.912 899.074,278.984 C899.322,282.583 897.593,285.116 894.79,286.845 C890.884,289.254 887.059,291.998 882.548,293.12 C878.894,294.028 877.233,297.845 873.337,298.546 C870.842,298.996 870.596,298.565 870.491,296.396 C870.156,289.45 865.347,284.876 860.587,281.095 C857.379,278.548 855.868,276.461 856.853,272.34" fill="#FEFEFE"/>
    <path d="M770.187,323.078 C765.656,323.078 762.134,323.381 758.688,323.001 C754.394,322.527 749.842,321.696 748.382,316.73 C746.941,311.832 749.454,307.815 752.982,304.969 C764.495,295.682 777.588,291.22 792.551,293.068 C801.458,294.168 808.914,302.871 808.244,311.559 C808.069,313.828 807.438,315.885 805.306,316.91 C799.969,319.476 794.68,322.047 788.491,322.219 C782.043,322.398 775.632,323.589 770.187,323.078" fill="#FFC68A"/>
    <path d="M690.507,223.756 C694.615,224.181 698.752,224.418 702.823,225.075 C708.544,225.998 711.783,231.398 710.184,236.828 C709.612,238.768 708.574,240.367 706.412,240.035 C689.951,237.505 680.486,248.652 670.459,258.49 C667.287,261.603 664.939,265.539 662.008,268.92 C660.704,270.424 659.389,272.889 656.827,271.717 C654.383,270.599 652.574,268.615 652.155,265.711 C649.975,250.606 661.682,231.926 676.081,226.804 C680.825,225.117 685.352,223.286 690.507,223.756" fill="#FEFEFE"/>
    <path d="M427.63,330.5 C434.566,335.085 435.81,347.236 429.986,353.838 C423.735,360.923 414.52,362.875 404.614,359.212 C395.224,355.74 389.392,347.523 389.07,338.299 C388.731,328.617 390.982,320.599 400.56,316.159 C405.367,313.931 406.496,314.547 407.363,319.752 C408.204,324.797 409.298,329.801 410.339,334.811 C411.054,338.252 413.32,340.232 416.654,340.997 C420.287,341.831 422.13,339.591 423.703,336.813 C424.924,334.658 426.315,332.6 427.63,330.5" fill="#FEFEFE"/>
    <path d="M803.6,199.643 C817.436,197.499 828.77,214.375 829.086,224.501 C829.149,226.52 828.243,227.13 826.419,227.113 C820.48,227.058 814.493,227.614 808.731,225.556 C801.995,223.151 794.958,222.078 787.914,221.269 C785.369,220.977 784.633,220.173 784.351,217.759 C782.875,205.134 786.336,200.648 798.681,199.663 C800.492,199.518 802.324,199.643 803.6,199.643" fill="#FEFEFE"/>
    <path d="M619.106,329.931 C619.166,321.494 626.284,319.294 631.889,316.454 C641.491,311.59 652.05,309.535 662.705,308.139 C666.52,307.639 669.674,310.075 673.316,310.202 C664.171,312.793 655.622,316.308 649.646,324.301 C646.171,328.948 643.272,333.903 641.078,339.176 C633.793,335.336 627.386,330.422 619.106,329.931" fill="#FFCABB"/>
    <path d="M838.148,451.827 C836.671,456.484 835.288,460.058 835.697,463.939 C835.892,465.789 834.716,466.016 833.218,466.199 C826.181,467.059 819.401,464.935 812.479,464.488 C811.666,464.436 810.213,464.381 810.255,463.018 C810.304,461.428 811.631,461.527 812.83,461.45 C821.868,460.868 830.361,458.688 838.148,451.827" fill="#FE2600"/>
    <path d="M853.28,429.921 C853.28,426.841 853.204,424.436 853.306,422.039 C853.376,420.404 860.62,417.111 861.608,418.314 C862.746,419.7 862.631,421.315 860.988,422.571 C859.552,423.669 858.152,424.829 856.838,426.069 C855.695,427.147 854.694,428.376 853.28,429.921" fill="#F52400"/>
    <path d="M558.958,318.776 C562.743,315.564 566.062,312.746 569.578,309.762 C569.739,310.573 569.94,310.936 569.836,311.152 C568.516,313.882 570.874,318.361 568.128,319.383 C566.034,320.163 562.449,319.578 558.958,318.776" fill="#F8F8F8"/>
    <path d="M231.124,662.153 C240.522,652.57 246.599,641.952 256.645,635.187 C261.025,632.238 261.553,628.489 259.985,624.561 C256.985,617.047 258.22,609.213 257.379,601.555 C256.932,597.484 257.3,593.324 257.3,588.782 C264.123,590.841 269.828,594.503 275.85,597.379 C281.819,600.229 288.027,602.362 294.188,604.652 C296.563,605.534 299.4,605.677 301.29,603.769 C308.717,596.267 318.483,594.417 328.128,592.176 C330.984,591.512 333.82,590.761 337.414,589.862 C333.307,599.455 328.947,608.17 324.048,616.624 C320.285,623.118 320.708,623.657 326.468,628.356 C332.873,633.583 338.761,639.442 346.029,646.082 C337.071,646.082 329.535,645.913 322.009,646.123 C311.981,646.403 303.555,649.351 299.649,659.912 C296.889,667.372 293.632,674.648 290.437,682.394 C287.405,677.916 286.065,673.121 284.41,668.57 C281.706,661.136 278.867,658.629 271.397,660.254 C258.55,663.049 245.62,661.573 231.124,662.153" fill="#FCFA00"/>
    <path d="M1122.08,65.132 C1129.16,61.47 1135.37,58.062 1142.22,56.402 C1145.31,55.651 1147.82,53.733 1150.97,53.169 C1153.07,52.792 1154.29,50.725 1153.99,48.553 C1153.42,44.41 1155.32,41.158 1157.39,37.981 C1163.24,28.966 1168.37,19.364 1177.01,12.499 C1181.42,8.995 1182.01,9.119 1184.09,14.587 C1187.2,22.742 1189.88,31.043 1193.95,38.826 C1198.79,48.081 1202.27,49.974 1212.65,48.514 C1219.81,47.507 1226.83,48.378 1233.73,50.564 C1236.58,51.467 1237.61,52.32 1235.21,55.071 C1229.52,61.578 1223.99,68.245 1216.91,73.311 C1213.47,75.772 1211.92,78.802 1212.05,83.016 C1212.25,90.169 1212.2,97.33 1212.27,104.487 C1212.32,109.982 1212.28,109.931 1206.66,108.559 C1199.7,106.863 1193.32,103.84 1186.9,100.769 C1180.95,97.919 1174.8,94.66 1168.23,99.271 C1166.2,100.692 1164.49,102.55 1162.58,104.151 C1161.06,105.428 1159.62,106.93 1157.87,107.77 C1155.51,108.908 1152.85,109.696 1150.18,109.275 C1146,108.617 1148.29,105.013 1147.8,102.888 C1146.43,96.915 1145.73,90.767 1146.18,84.612 C1146.41,81.456 1145.24,79.522 1142.39,78.44 C1134.84,75.568 1129.63,69.329 1122.08,65.132" fill="#FCFA00"/>
    <path d="M1320.58,550.966 C1328.28,547.287 1334.62,543.732 1341.77,541.909 C1344.75,541.15 1347.59,539.719 1350.37,538.343 C1351.9,537.59 1353.05,536.052 1352.85,534.284 C1352.36,529.784 1354.51,526.235 1356.76,522.775 C1362.36,514.16 1367.38,505.06 1375.54,498.439 C1380.2,494.654 1381.02,494.852 1383.26,500.413 C1386.42,508.242 1389.1,516.234 1392.72,523.914 C1396.39,531.705 1401.45,535.407 1410.27,534.335 C1418.04,533.39 1425.83,533.78 1433.4,536.464 C1436.39,537.525 1436.69,538.488 1434.69,540.81 C1429.13,547.227 1423.78,553.87 1416.83,558.847 C1412.74,561.775 1411.11,565.423 1411.33,570.326 C1411.64,577.624 1411.56,584.94 1411.9,592.237 C1412.06,595.573 1411.08,596.116 1407.9,595.384 C1400.07,593.584 1392.85,590.392 1385.68,586.922 C1379.53,583.946 1373.25,580.679 1366.66,585.948 C1364.59,587.607 1362.73,589.537 1360.68,591.232 C1359.41,592.281 1358.07,593.339 1356.59,594.017 C1348.79,597.581 1346.89,596.537 1346.14,588.218 C1345.64,582.605 1344.45,577.019 1345.04,571.347 C1345.41,567.808 1343.8,565.734 1340.7,564.375 C1333.5,561.213 1328.08,555.497 1320.58,550.966" fill="#FCFA00"/>
    <path d="M637.89,783.715 C637.333,763.481 636.775,743.248 636.225,723.014 C636.198,722.018 636.185,721.014 636.271,720.023 C636.549,716.809 638.252,714.446 641.476,714.395 C644.992,714.34 646.908,716.827 646.927,720.249 C646.952,724.868 646.787,729.48 646.846,734.112 C647.092,753.543 648.659,772.942 648.189,792.39 C648.098,796.133 647.415,799.548 643.266,799.603 C638.782,799.662 637.849,796.131 638.086,792.182 C638.255,789.369 638.119,786.537 638.119,783.714 C638.043,783.714 637.967,783.715 637.89,783.715" fill="#000000"/>
    <path d="M741.008,620.842 C739.522,642.533 738.828,664.25 739.05,685.998 C739.085,689.51 737.587,692.573 733.799,692.642 C729.744,692.716 728.062,689.64 728.181,685.874 C728.668,670.466 729.29,655.063 729.824,639.656 C730.111,631.382 730.381,623.106 730.533,614.829 C730.592,611.57 731.135,608.621 734.903,608.121 C738.997,607.577 740.483,610.494 740.949,613.873 C741.263,616.155 741.008,618.516 741.008,620.842" fill="#000000"/>
    <path d="M838.852,772.672 C838.768,758.671 840.131,744.751 841.115,730.814 C841.353,727.445 843.348,725.334 846.488,725.391 C849.707,725.45 851.515,727.671 851.296,731.128 C850.033,751.053 848.982,770.986 849.048,790.963 C849.06,794.585 846.896,796.799 843.495,796.652 C840.212,796.509 838.806,793.961 838.836,790.66 C838.891,784.664 838.852,778.668 838.852,772.672" fill="#000000"/>
    <path d="M1012.07,760.124 C1012.07,751.139 1012.08,742.155 1012.07,733.17 C1012.07,731.169 1012.08,729.212 1012.96,727.318 C1014.21,724.633 1016.29,723.518 1019.02,724.304 C1021.51,725.018 1022.82,727.044 1022.65,729.643 C1021.38,748.409 1022.41,767.197 1022.06,785.971 C1022.04,786.969 1022.08,787.968 1022.06,788.966 C1022,792.379 1020.75,794.881 1016.92,794.95 C1012.99,795.022 1011.84,792.469 1011.84,789.05 C1011.84,779.407 1011.84,769.765 1011.84,760.123 C1011.92,760.123 1012,760.124 1012.07,760.124" fill="#000000"/>
    <path d="M828.057,519.464 C828.289,509.477 827.405,501.417 825.717,493.426 C824.787,489.023 826.6,485.553 830.084,485.419 C833.974,485.269 835.349,487.895 836.095,491.385 C838.368,502.018 838.094,512.854 838.855,523.598 C840.113,541.335 841.024,559.097 842.059,576.849 C842.146,578.343 842.128,579.85 842.045,581.345 C841.863,584.613 840.206,586.808 836.857,586.87 C833.356,586.935 832.01,584.625 831.837,581.33 C831.369,572.371 830.842,563.416 830.288,554.462 C829.53,542.192 828.726,529.925 828.057,519.464" fill="#000000"/>
    <path d="M1029.1,535.891 C1029.02,548.072 1029.1,558.169 1031.14,568.152 C1031.74,571.104 1030.7,573.528 1027.42,574.127 C1024.27,574.703 1021.6,573.693 1021.02,570.258 C1020.16,565.211 1019.13,560.085 1019.2,555.007 C1019.53,531.068 1016.87,507.238 1016.85,483.32 C1016.84,482.489 1016.83,481.658 1016.84,480.827 C1016.85,477.493 1018.41,475.221 1021.81,475.236 C1025.1,475.25 1026.9,477.443 1027.01,480.728 C1027.26,488.192 1027.61,495.661 1027.8,503.115 C1028.11,514.736 1029.7,526.31 1029.1,535.891" fill="#000000"/>
    <path d="M757.006,400.98 C747.227,401.112 738.536,398.956 731.166,392.91 C726.283,388.905 723.868,383.156 721.451,377.561 C720.412,375.154 721.837,373.04 724.131,371.778 C726.342,370.561 728.441,371.033 729.988,372.84 C731.26,374.325 732.354,376.062 733.126,377.859 C736.967,386.799 744.287,389.74 753.348,390.211 C765.681,390.851 777.227,387.934 788.419,383.102 C795.531,380.032 797.515,373.591 799.112,366.892 C799.8,364.005 800.515,361.123 801.132,358.221 C801.761,355.261 803.718,353.994 806.519,354.188 C809.4,354.389 811.388,356.151 811.027,359.072 C809.327,372.825 806.066,389.825 787.835,394.37 C782.651,395.662 777.927,398.629 772.364,399.219 C767.113,399.776 761.958,401.223 757.006,400.98" fill="#000000"/>
    <path d="M808.101,264.358 C807.41,261.088 807.412,258.083 811.309,256.628 C815.313,255.133 818.045,256.99 820.336,259.958 C823.958,264.651 824.005,275.293 820.478,279.534 C817.036,283.673 812.294,283.05 810.576,277.924 C809.12,273.584 807.726,269.124 808.101,264.358" fill="#010101"/>
    <path d="M699.674,283.544 C699.614,279.771 700.185,276.649 704.092,275.872 C707.902,275.114 710.48,277.102 711.873,280.502 C714.162,286.09 715.31,291.903 714.023,297.914 C713.439,300.64 711.835,302.802 708.723,302.976 C705.59,303.151 703.924,301.338 703.117,298.451 C701.706,293.403 699.462,288.547 699.674,283.544" fill="#010101"/>
  </g>
</svg>
